# xmcd
#
# Track frame offsets:
#	183
#	15408
#	30483
#	46233
#	63408
#	77058
#	92758
#	112108
#	125758
#	146045
#	159633
#
# Disc length: 2454 seconds
#
# Revision: 1
# Processed by: cddbd v1.5.2PL0 Copyright (c) Steve Scherf et al.
# Submitted via: audiograbber 1.83.01
#
DISCID=8f09940b
DTITLE=Claudia/Big Hand/Casino - Oh Yeah!
DYEAR=1985
DGENRE=Country
TTITLE0=Prisoners of the blues
TTITLE1=Light on the mountain
TTITLE2=Faded blue
TTITLE3=Lonely days and nights
TTITLE4=The dam's gonna break tonight
TTITLE5=It's hard to feel blue (When you're red)
TTITLE6=Honky tonk night
TTITLE7=Thinking back to my younger days
TTITLE8=Love sweet love
TTITLE9=Barroom roses
TTITLE10=Give me strength
EXTD=YEAR: 1985
EXTT0=
EXTT1=
EXTT2=
EXTT3=
EXTT4=
EXTT5=
EXTT6=
EXTT7=
EXTT8=
EXTT9=
EXTT10=
PLAYORDER=
